<svg width="36" height="42" viewBox="0 0 36 42" fill="none" xmlns="http://www.w3.org/2000/svg">
<path fill-rule="evenodd" clip-rule="evenodd" d="M21.7143 33.5666C28.7597 31.8918 34 25.5579 34 18C34 9.16344 26.8366 2 18 2C9.16344 2 2 9.16344 2 18C2 25.5579 7.24029 31.8918 14.2857 33.5666L18 40L21.7143 33.5666Z" fill="#677C9B"/>
<path d="M13.7266 12.1984C13.7266 12.0328 13.8609 11.8984 14.0266 11.8984H21.9715C22.1372 11.8984 22.2715 12.0328 22.2715 12.1984V12.9056C22.2715 13.0713 22.1372 13.2056 21.9715 13.2056H14.0266C13.8609 13.2056 13.7266 13.0713 13.7266 12.9056V12.1984Z" fill="white"/>
<path fill-rule="evenodd" clip-rule="evenodd" d="M21.9681 13.6406C22.1354 13.6406 22.2724 13.787 22.2724 13.9733V23.6977C22.2724 23.9187 22.0933 24.0977 21.8724 24.0977H19.1815C19.0158 24.0977 18.8815 23.9634 18.8815 23.7977V21.3477C18.8815 21.1821 18.7472 21.0477 18.5815 21.0477H17.4861C17.3204 21.0477 17.1861 21.1821 17.1861 21.3477V23.7977C17.1861 23.9634 17.0518 24.0977 16.8861 24.0977H14.1305C13.9096 24.0977 13.7305 23.9187 13.7305 23.6977V13.9733C13.7305 13.787 13.8674 13.6406 14.0348 13.6406H21.9681ZM15.9148 15.4833C15.9148 15.4281 15.9595 15.3833 16.0148 15.3833H17.0863C17.1416 15.3833 17.1863 15.4281 17.1863 15.4833V16.5904C17.1863 16.6457 17.1416 16.6904 17.0863 16.6904H16.0148C15.9595 16.6904 15.9148 16.6457 15.9148 16.5904V15.4833ZM16.0147 17.9977C15.9594 17.9977 15.9147 18.0425 15.9147 18.0977V19.2048C15.9147 19.2601 15.9594 19.3048 16.0147 19.3048H17.0862C17.1415 19.3048 17.1862 19.2601 17.1862 19.2048V18.0977C17.1862 18.0425 17.1415 17.9977 17.0862 17.9977H16.0147ZM18.8817 15.4833C18.8817 15.4281 18.9264 15.3833 18.9817 15.3833H20.0532C20.1085 15.3833 20.1532 15.4281 20.1532 15.4833V16.5904C20.1532 16.6457 20.1085 16.6904 20.0532 16.6904H18.9817C18.9264 16.6904 18.8817 16.6457 18.8817 16.5904V15.4833ZM18.9817 17.9977C18.9264 17.9977 18.8817 18.0425 18.8817 18.0977V19.2048C18.8817 19.26 18.9264 19.3048 18.9817 19.3048H20.0532C20.1085 19.3048 20.1532 19.26 20.1532 19.2048V18.0977C20.1532 18.0425 20.1085 17.9977 20.0532 17.9977H18.9817Z" fill="white"/>
<path d="M22.6924 16.3538V23.7976C22.6924 23.9633 22.8267 24.0976 22.9924 24.0976H24C24.2761 24.0976 24.5 23.8738 24.5 23.5976V17.4304C24.5 17.2806 24.4514 17.1458 24.3786 17.0859L23.1807 16.1202C22.9845 15.962 22.6924 16.1017 22.6924 16.3538Z" fill="white"/>
<path d="M13.3076 16.3538V23.7976C13.3076 23.9633 13.1733 24.0976 13.0076 24.0976H12C11.7239 24.0976 11.5 23.8738 11.5 23.5976V17.4304C11.5 17.2806 11.5486 17.1458 11.6214 17.0859L12.8193 16.1202C13.0155 15.962 13.3076 16.1017 13.3076 16.3538Z" fill="white"/>
</svg>
